<?xml version="1.0" encoding="utf-8"?>
<!-- Generator: Adobe Illustrator 27.5.0, SVG Export Plug-In . SVG Version: 6.00 Build 0)  -->
<svg version="1.1" xmlns="http://www.w3.org/2000/svg" xmlns:xlink="http://www.w3.org/1999/xlink" x="0px" y="0px"
	 viewBox="0 0 600 400" style="enable-background:new 0 0 600 400;" xml:space="preserve">
<g id="background">
	<rect y="0" style="fill:#FFFFFF;" width="600" height="400"/>
</g>
<g id="objects">
	<g>
		<g>
			<ellipse style="fill:#D8DFEA;" cx="112.389" cy="325.064" rx="85.507" ry="3.653"/>
			<g>
				<g>
					<path style="fill:#F41943;" d="M127.227,314.792l22.739-36.016c0.641-1.015,1.856-1.511,3.024-1.234l41.444,9.829
						c2.223,0.527,4.113-1.679,3.25-3.795l-35.18-86.226l-75.434,30.777l35.18,86.226
						C123.114,316.47,126.007,316.725,127.227,314.792z"/>
					<polygon style="fill:#BA0F38;" points="139.816,238.168 115.223,297.13 91.169,238.168 					"/>
					<path style="fill:#F41943;" d="M137.706,228.126l-4.097,10.042l-15.148,37.127l-0.626,1.53l-5.447,13.357l-9.863,24.17
						c-0.863,2.115-3.755,2.37-4.978,0.44L74.81,278.778c-0.637-1.014-1.854-1.512-3.025-1.234l-41.444,9.828
						c-2.219,0.527-4.108-1.681-3.245-3.796l35.18-86.227L137.706,228.126z"/>
					<path style="fill:#BA0F38;" d="M172.818,222.632c-3.291,2.932-26.563,23-60.428,23c-6.374,0-12.749-0.662-18.984-1.988
						c-15.336-3.259-29.741-10.586-41.444-21.012l10.315-25.283l11.81,4.821l1.072,0.44l37.232,15.182l37.232-15.182l1.072-0.44
						l11.81-4.821L172.818,222.632z"/>
				</g>
				<g>
					<circle style="fill:#F9B906;" cx="112.389" cy="154.727" r="83.444"/>
					<circle style="fill:#E8A615;" cx="112.389" cy="154.727" r="76.024"/>
					<circle style="fill:#F9B906;" cx="112.389" cy="154.727" r="71.371"/>
					<path style="fill:#FFC943;" d="M148.491,93.175L48.276,186.079c-4.646-9.467-7.262-20.112-7.262-31.354
						c0-8.338,1.438-16.34,4.076-23.783l50.134-45.499c5.498-1.364,11.252-2.088,17.166-2.088
						C125.555,83.356,137.894,86.936,148.491,93.175z"/>
					<path style="fill:#FFC943;" d="M178.774,128.524l-97.529,90.417c-9.824-4.784-18.391-11.753-25.067-20.277l105.372-95.633
						C169.003,110.122,174.927,118.801,178.774,128.524z"/>
				</g>
			</g>
		</g>
		<g>
			<ellipse style="fill:#D8DFEA;" cx="299.999" cy="325.064" rx="85.507" ry="3.653"/>
			<g>
				<g>
					<path style="fill:#F41943;" d="M314.838,314.792l22.739-36.016c0.641-1.015,1.856-1.511,3.024-1.234l41.444,9.829
						c2.223,0.527,4.113-1.679,3.25-3.795l-35.18-86.226l-75.434,30.777l35.18,86.226
						C310.724,316.47,313.618,316.725,314.838,314.792z"/>
					<polygon style="fill:#BA0F38;" points="327.427,238.168 302.834,297.13 278.779,238.168 					"/>
					<path style="fill:#F41943;" d="M325.317,228.126l-4.097,10.042l-15.148,37.127l-0.626,1.53l-5.447,13.357l-9.863,24.17
						c-0.863,2.115-3.755,2.37-4.978,0.44l-22.739-36.015c-0.637-1.014-1.854-1.512-3.025-1.234l-41.444,9.828
						c-2.219,0.527-4.109-1.681-3.245-3.796l35.18-86.227L325.317,228.126z"/>
					<path style="fill:#BA0F38;" d="M360.428,222.632c-3.291,2.932-26.563,23-60.428,23c-6.374,0-12.749-0.662-18.984-1.988
						c-15.336-3.259-29.741-10.586-41.444-21.012l10.315-25.283l11.81,4.821l1.072,0.44L300,217.794l37.232-15.182l1.072-0.44
						l11.81-4.821L360.428,222.632z"/>
				</g>
				<g>
					<circle style="fill:#EBF2F2;" cx="299.999" cy="154.727" r="83.444"/>
					<circle style="fill:#C3DBDA;" cx="299.999" cy="154.727" r="76.024"/>
					<circle style="fill:#EBF2F2;" cx="299.999" cy="154.727" r="71.371"/>
					<path style="fill:#FFFFFF;" d="M336.101,93.175l-100.214,92.905c-4.646-9.467-7.262-20.112-7.262-31.354
						c0-8.338,1.438-16.34,4.076-23.783l50.134-45.499c5.498-1.364,11.252-2.088,17.166-2.088
						C313.166,83.356,325.505,86.936,336.101,93.175z"/>
					<path style="fill:#FFFFFF;" d="M366.384,128.524l-97.529,90.417c-9.824-4.784-18.391-11.753-25.067-20.277l105.372-95.633
						C356.613,110.122,362.538,118.801,366.384,128.524z"/>
				</g>
			</g>
		</g>
		<g>
			<ellipse style="fill:#D8DFEA;" cx="487.61" cy="325.064" rx="85.507" ry="3.653"/>
			<g>
				<g>
					<path style="fill:#F41943;" d="M502.448,314.792l22.739-36.016c0.641-1.015,1.856-1.511,3.024-1.234l41.444,9.829
						c2.223,0.527,4.113-1.679,3.25-3.795l-35.18-86.226l-75.434,30.777l35.18,86.226
						C498.335,316.47,501.228,316.725,502.448,314.792z"/>
					<polygon style="fill:#BA0F38;" points="515.037,238.168 490.444,297.13 466.39,238.168 					"/>
					<path style="fill:#F41943;" d="M512.927,228.126l-4.097,10.042l-15.148,37.127l-0.626,1.53l-5.447,13.357l-9.863,24.17
						c-0.863,2.115-3.755,2.37-4.978,0.44l-22.739-36.015c-0.637-1.014-1.854-1.512-3.025-1.234l-41.444,9.828
						c-2.219,0.527-4.108-1.681-3.245-3.796l35.18-86.227L512.927,228.126z"/>
					<path style="fill:#BA0F38;" d="M548.039,222.632c-3.291,2.932-26.563,23-60.428,23c-6.374,0-12.749-0.662-18.984-1.988
						c-15.336-3.259-29.741-10.586-41.444-21.012l10.315-25.283l11.81,4.821l1.072,0.44l37.232,15.182l37.232-15.182l1.072-0.44
						l11.81-4.821L548.039,222.632z"/>
				</g>
				<g>
					<circle style="fill:#E37F22;" cx="487.61" cy="154.727" r="83.444"/>
					<circle style="fill:#BA6017;" cx="487.61" cy="154.727" r="76.024"/>
					<circle style="fill:#E37F22;" cx="487.61" cy="154.727" r="71.371"/>
					<path style="fill:#F79A4D;" d="M523.712,93.175l-100.214,92.905c-4.646-9.467-7.262-20.112-7.262-31.354
						c0-8.338,1.438-16.34,4.076-23.783l50.134-45.499c5.498-1.364,11.252-2.088,17.166-2.088
						C500.776,83.356,513.115,86.936,523.712,93.175z"/>
					<path style="fill:#F79A4D;" d="M553.995,128.524l-97.529,90.417c-9.824-4.784-18.391-11.753-25.067-20.277l105.372-95.633
						C544.224,110.122,550.148,118.801,553.995,128.524z"/>
				</g>
			</g>
		</g>
	</g>
</g>
</svg>
